{"asset":{"generator":"Res Publica / Three.js meshoptimizer attribute-aware LOD","version":"2.0"},"scene":0,"scenes":[{"name":"Scene","nodes":[0,1,2,3]}],"nodes":[{"mesh":0,"name":"potted_plant_01_stem"},{"mesh":1,"name":"potted_plant_01_pebbles","scale":[1.0021867752075195,1.0021867752075195,1.0021867752075195],"translation":[0,-0.013706685975193977,0]},{"mesh":2,"name":"potted_plant_01_pot"},{"mesh":3,"name":"potted_plant_01_leaves"}],"materials":[{"doubleSided":true,"name":"potted_plant_01_pot","normalTexture":{"index":0},"pbrMetallicRoughness":{"baseColorTexture":{"index":1},"metallicFactor":0,"metallicRoughnessTexture":{"index":2}}},{"alphaCutoff":0.5,"alphaMode":"MASK","doubleSided":true,"name":"potted_plant_01_leaves","normalTexture":{"index":3},"pbrMetallicRoughness":{"baseColorTexture":{"index":4},"metallicFactor":0,"metallicRoughnessTexture":{"index":5}}}],"meshes":[{"name":"potted_plant_01_base_low","primitives":[{"attributes":{"POSITION":0,"NORMAL":1,"TEXCOORD_0":2},"indices":3,"material":0}]},{"name":"Circle.008","primitives":[{"attributes":{"POSITION":4,"NORMAL":5,"TEXCOORD_0":6},"indices":7,"material":0}]},{"name":"Circle.002","primitives":[{"attributes":{"POSITION":8,"NORMAL":9,"TEXCOORD_0":10},"indices":11,"material":0}]},{"name":"Plane.070","primitives":[{"attributes":{"POSITION":12,"NORMAL":13,"TEXCOORD_0":14},"indices":15,"material":1}]}],"textures":[{"sampler":0,"source":0},{"sampler":0,"source":1},{"sampler":0,"source":2},{"sampler":0,"source":3},{"sampler":0,"source":4},{"sampler":0,"source":5}],"images":[{"mimeType":"image/jpeg","name":"potted_plant_01_pot_nor_gl","uri":"textures/potted_plant_01_pot_nor_gl_1k.jpg"},{"mimeType":"image/jpeg","name":"potted_plant_01_pot_diff","uri":"textures/potted_plant_01_pot_diff_1k.jpg"},{"mimeType":"image/jpeg","name":"potted_plant_01_pot_rough","uri":"textures/potted_plant_01_pot_rough_1k.jpg"},{"mimeType":"image/jpeg","name":"potted_plant_01_leaves_nor_gl.png","uri":"textures/potted_plant_01_leaves_nor_gl_1k.jpg"},{"mimeType":"image/jpeg","name":"potted_plant_01_leaves_diff.png","uri":"textures/potted_plant_01_leaves_diff_1k.jpg"},{"mimeType":"image/jpeg","name":"potted_plant_01_leaves_rough.png","uri":"textures/potted_plant_01_leaves_rough_1k.jpg"}],"accessors":[{"bufferView":0,"componentType":5126,"count":1147,"type":"VEC3","min":[-0.2345285266637802,0.41102948784828186,-0.21713386476039886],"max":[0.13674156367778778,1.2668092250823975,0.1757177859544754]},{"bufferView":1,"componentType":5126,"count":1147,"type":"VEC3","min":[-0.99981689453125,-0.9946592450141907,-0.9963682889938354],"max":[0.999237060546875,0.9989623427391052,0.9991455078125]},{"bufferView":2,"componentType":5126,"count":1147,"type":"VEC2"},{"bufferView":3,"componentType":5123,"count":4626,"type":"SCALAR"},{"bufferView":4,"componentType":5126,"count":10272,"type":"VEC3","min":[-0.2180463969707489,0.48130929470062256,-0.21738101541996002],"max":[0.2112395167350769,0.5423145890235901,0.21265316009521484]},{"bufferView":5,"componentType":5126,"count":10272,"type":"VEC3","min":[-0.99993896484375,-0.999969482421875,-0.9998779296875],"max":[0.9998779296875,0.999969482421875,0.99993896484375]},{"bufferView":6,"componentType":5126,"count":10272,"type":"VEC2"},{"bufferView":7,"componentType":5123,"count":37536,"type":"SCALAR"},{"bufferView":8,"componentType":5126,"count":861,"type":"VEC3","min":[-0.23310250043869019,0,-0.23310253024101257],"max":[0.23310254514217377,0.53143310546875,0.233102485537529]},{"bufferView":9,"componentType":5126,"count":861,"type":"VEC3","min":[-0.999969482421875,-0.9996337890625,-0.999969482421875],"max":[0.999969482421875,0.999420166015625,0.999969482421875]},{"bufferView":10,"componentType":5126,"count":861,"type":"VEC2"},{"bufferView":11,"componentType":5123,"count":3588,"type":"SCALAR"},{"bufferView":12,"componentType":5126,"count":19316,"type":"VEC3","min":[-0.33836793899536133,0.5832836627960205,-0.36367878317832947],"max":[0.24901919066905975,1.336457371711731,0.2698860168457031]},{"bufferView":13,"componentType":5126,"count":19316,"type":"VEC3","min":[-0.9998639822006226,-0.9975634217262268,-0.999708354473114],"max":[0.9998863339424133,0.9999562501907349,0.9996557831764221]},{"bufferView":14,"componentType":5126,"count":19316,"type":"VEC2"},{"bufferView":15,"componentType":5125,"count":70554,"type":"SCALAR"}],"bufferViews":[{"buffer":0,"byteOffset":0,"byteLength":13764,"target":34962},{"buffer":0,"byteOffset":13764,"byteLength":13764,"target":34962},{"buffer":0,"byteOffset":27528,"byteLength":9176,"target":34962},{"buffer":0,"byteOffset":36704,"byteLength":9252,"target":34963},{"buffer":0,"byteOffset":45956,"byteLength":123264,"target":34962},{"buffer":0,"byteOffset":169220,"byteLength":123264,"target":34962},{"buffer":0,"byteOffset":292484,"byteLength":82176,"target":34962},{"buffer":0,"byteOffset":374660,"byteLength":75072,"target":34963},{"buffer":0,"byteOffset":449732,"byteLength":10332,"target":34962},{"buffer":0,"byteOffset":460064,"byteLength":10332,"target":34962},{"buffer":0,"byteOffset":470396,"byteLength":6888,"target":34962},{"buffer":0,"byteOffset":477284,"byteLength":7176,"target":34963},{"buffer":0,"byteOffset":484460,"byteLength":231792,"target":34962},{"buffer":0,"byteOffset":716252,"byteLength":231792,"target":34962},{"buffer":0,"byteOffset":948044,"byteLength":154528,"target":34962},{"buffer":0,"byteOffset":1102572,"byteLength":282216,"target":34963}],"samplers":[{"magFilter":9729,"minFilter":9987}],"buffers":[{"uri":"potted_plant_01.lod.bin","byteLength":1384788}]}